<?xml version="1.0" encoding="UTF-8"?>
<svg width="24px" height="22px" viewBox="0 0 24 22" version="1.1" xmlns="http://www.w3.org/2000/svg" xmlns:xlink="http://www.w3.org/1999/xlink">
    <!-- Generator: Sketch 47.1 (45422) - http://www.bohemiancoding.com/sketch -->
    <title>Combined Shape</title>
    <desc>Created with Sketch.</desc>
    <defs>
        <linearGradient x1="50%" y1="100%" x2="50%" y2="0%" id="linearGradient-1">
            <stop stop-color="#439BE5" offset="0%"></stop>
            <stop stop-color="#29C9D1" offset="100%"></stop>
        </linearGradient>
        <path d="M6.45485327,-1 C6.73927765,-1 6.99322799,-0.89 7.17607223,-0.71 L9.69525959,1.77 C9.87810384,1.95 9.98984199,2.2 9.98984199,2.5 C9.98984199,2.75 7.30812641,6.41 6.91196388,6.41 L3.76297968,6.41 C3.28555305,7.86 3.28555305,14.15 3.7731377,15.6 L6.9221219,15.6 C7.32844244,15.6 10,19.25 10,19.5 C10,19.8 9.88826185,20.05 9.70541761,20.23 L7.18623025,22.71 C7.003386,22.89 6.74943567,23 6.46501129,23 C6.18058691,23 5.92663657,22.89 5.74379233,22.71 C2.80812641,19.66 1,15.54 1,11 C1,6.47 2.80812641,2.35 5.74379233,-0.7 C5.92663657,-0.88 6.17042889,-1 6.45485327,-1 Z M5,10.93 C5,10.3777153 5.44386482,9.93 6,9.93 C6.55228475,9.93 7,10.3738648 7,10.93 C7,11.4822847 6.55613518,11.93 6,11.93 C5.44771525,11.93 5,11.4861352 5,10.93 Z M9,8.92077797 C9,8.37358641 9.44386482,7.93 10,7.93 C10.5522847,7.93 11,8.38097518 11,8.92077797 L11,12.939222 C11,13.4864136 10.5561352,13.93 10,13.93 C9.44771525,13.93 9,13.4790248 9,12.939222 L9,8.92077797 Z M13,5.93247329 C13,5.37882258 13.4438648,4.93 14,4.93 C14.5522847,4.93 15,5.38576096 15,5.93247329 L15,15.9275267 C15,16.4811774 14.5561352,16.93 14,16.93 C13.4477153,16.93 13,16.474239 13,15.9275267 L13,5.93247329 Z M17,8.92077797 C17,8.37358641 17.4438648,7.93 18,7.93 C18.5522847,7.93 19,8.38097518 19,8.92077797 L19,12.939222 C19,13.4864136 18.5561352,13.93 18,13.93 C17.4477153,13.93 17,13.4790248 17,12.939222 L17,8.92077797 Z M21,10.93 C21,10.3777153 21.4438648,9.93 22,9.93 C22.5522847,9.93 23,10.3738648 23,10.93 C23,11.4822847 22.5561352,11.93 22,11.93 C21.4477153,11.93 21,11.4861352 21,10.93 Z" id="path-2"></path>
        <filter x="-1.7%" y="-1.6%" width="103.4%" height="103.1%" filterUnits="objectBoundingBox" id="filter-3">
            <feGaussianBlur stdDeviation="0.125" in="SourceAlpha" result="shadowBlurInner1"></feGaussianBlur>
            <feOffset dx="-0.5" dy="0" in="shadowBlurInner1" result="shadowOffsetInner1"></feOffset>
            <feComposite in="shadowOffsetInner1" in2="SourceAlpha" operator="arithmetic" k2="-1" k3="1" result="shadowInnerInner1"></feComposite>
            <feColorMatrix values="0 0 0 0 0   0 0 0 0 0   0 0 0 0 0  0 0 0 0.5 0" type="matrix" in="shadowInnerInner1"></feColorMatrix>
        </filter>
    </defs>
    <g id="Page-1" stroke="none" stroke-width="1" fill="none" fill-rule="evenodd">
        <g id="Combined-Shape" fill-rule="nonzero" transform="translate(12.000000, 11.000000) rotate(-90.000000) translate(-12.000000, -11.000000) ">
            <use fill="url(#linearGradient-1)" fill-rule="evenodd" xlink:href="#path-2"></use>
            <use fill="black" fill-opacity="1" filter="url(#filter-3)" xlink:href="#path-2"></use>
        </g>
    </g>
</svg>