<svg xmlns="http://www.w3.org/2000/svg" width="25" height="22" viewBox="0 0 25 22" xmlns:xlink="http://www.w3.org/1999/xlink">
  <defs>
    <path id="b" d="M4 12c0-.5523.444-1 1-1 .5523 0 1 .444 1 1 0 .5523-.444 1-1 1-.5523 0-1-.444-1-1zm4-2.0092C8 9.4436 8.444 9 9 9c.5523 0 1 .451 1 .9908v4.0184C10 14.5564 9.556 15 9 15c-.5523 0-1-.451-1-.9908V9.9908zm4-2.9883C12 6.4488 12.444 6 13 6c.5523 0 1 .4558 1 1.0025v9.995C14 17.5512 13.556 18 13 18c-.5523 0-1-.4558-1-1.0025v-9.995zm4 2.9883C16 9.4436 16.444 9 17 9c.5523 0 1 .451 1 .9908v4.0184c0 .5472-.444.9908-1 .9908-.5523 0-1-.451-1-.9908V9.9908zM20 12c0-.5523.444-1 1-1 .5523 0 1 .444 1 1 0 .5523-.444 1-1 1-.5523 0-1-.444-1-1z"/>
  </defs>
  <g fill="none" fill-rule="evenodd">
    <path fill="#fff" fill-rule="nonzero" d="M.07 16.545c0-.2843.11-.5382.29-.721l2.48-2.5193c.18-.1828.43-.2945.73-.2945.25 0 3.91 2.6817 3.91 3.0778v3.149c1.45.4774 7.74.4774 9.19-.01v-3.149c0-.4064 3.65-3.078 3.9-3.078.3 0 .55.1117.73.2946l2.48 2.5192c.18.1828.29.4368.29.7212 0 .2844-.11.5384-.29.7212C20.73 20.192 16.61 22 12.07 22c-4.53 0-8.65-1.808-11.7-4.7438-.18-.1828-.3-.4266-.3-.711z"/>
    <g transform="rotate(-90 11 11)">
      <use fill="#fff" xlink:href="#b"/>
    </g>
  </g>
</svg>
