<?xml version="1.0" encoding="utf-8"?>
<!-- Generator: Adobe Illustrator 20.1.0, SVG Export Plug-In . SVG Version: 6.00 Build 0)  -->
<!DOCTYPE svg PUBLIC "-//W3C//DTD SVG 1.1//EN" "http://www.w3.org/Graphics/SVG/1.1/DTD/svg11.dtd">
<svg version="1.1" id="Layer_1" xmlns="http://www.w3.org/2000/svg" xmlns:xlink="http://www.w3.org/1999/xlink" x="0px" y="0px"
	 viewBox="0 0 110 89" style="enable-background:new 0 0 110 89;" xml:space="preserve">
<style type="text/css">
	.st0{fill:#0378BE;}
	.st1{fill:#0278BE;}
	.st2{fill:#F37B2B;}
	.st3{fill:#0479BE;}
	.st4{fill:#F37C2C;}
	.st5{fill:#2B8DC8;}
</style>
<path class="st0" d="M51.3,51.6c0.1-0.3,0.1-0.5,0.1-0.7c0-4.2,0-8.4,0-12.6c0-1,0.1-1.2,1.2-1.2c0.8,0,1.6,0,2.4,0
	c0.4,0,0.6,0.1,0.6,0.6c0,2.2,0,4.4,0,6.5c0,5.1,0,10.2,0,15.3c0,0.5-0.1,0.6-0.6,0.6c-1,0-2.1,0-3.2,0c-0.4,0-0.7-0.1-1-0.5
	C48,54.4,45.1,49.2,42.3,44c-0.1-0.1-0.1-0.3-0.3-0.5c-0.1,0.2-0.1,0.4-0.1,0.6c0,5.2,0,10.3,0,15.4c0,0.5-0.1,0.6-0.6,0.6
	c-1,0-2,0-3,0c-0.5,0-0.6-0.1-0.6-0.6c0-5.2,0-10.4,0-15.5c0-1.8,0-3.7,0-5.6c0-1.2,0.1-1.3,1.4-1.3c1.2,0,2.4,0,3.6,0
	c0.4,0,0.6,0.1,0.8,0.5c2.5,4.6,5,9.1,7.5,13.6C51,51.3,51.1,51.4,51.3,51.6z"/>
<path class="st1" d="M12.5,50.5c0,3,0,6,0,9c0,0.5-0.1,0.6-0.6,0.5c-1.1,0-2.3,0-3.4,0c-0.5,0-0.6-0.1-0.6-0.6c0-5.9,0-11.8,0-17.7
	c0-0.8,0-0.8-0.8-0.8c-1.8,0-3.6,0-5.4,0c-0.4,0-0.6,0-0.6-0.5c0-0.7,0-1.5,0-2.3c0-0.8,0.2-1,1-1c5.6,0,11.1,0,16.7,0
	c0.4,0,0.5,0,0.5,0.5c0,0.9,0,1.9,0,2.9c0,0.4-0.1,0.5-0.5,0.5c-1.9,0-3.9,0-5.8,0c-0.4,0-0.5,0.1-0.5,0.5
	C12.5,44.4,12.5,47.5,12.5,50.5z"/>
<path class="st1" d="M75.7,46.8c0-2.9,0-5.8,0-8.7c0-0.8,0.2-1,1-1c1,0,1.9,0,2.9,0c0.4,0,0.5,0.1,0.5,0.5c0,1.4,0,2.9,0,4.3
	c0,0.4,0.1,0.5,0.5,0.5c1,0,1.9,0,2.9,0c0.4,0,0.6,0,0.5,0.5c0,0.7,0,1.5,0,2.2c0,0.3-0.1,0.4-0.4,0.4c-1,0-2.1,0-3.1,0
	c-0.3,0-0.4,0-0.4,0.4c0,2.8-0.1,5.6,0.1,8.4c0.2,2.6,1.9,3.6,4.5,2.6c0.6-0.2,0.6-0.2,0.6,0.4c0,0.7,0,1.5,0,2.2
	c0,0.2,0,0.4-0.3,0.5c-1.8,0.4-3.6,0.5-5.4,0.2c-2.4-0.4-3.7-2-3.8-4.6C75.6,52.7,75.7,49.8,75.7,46.8L75.7,46.8z"/>
<path class="st2" d="M91,22.3c0.1,0,0.2,0.1,0.3,0.2c5.8,3.7,11.6,7.4,17.4,11.1c0.4,0.2,0.3,0.3,0,0.6c-1.9,1.2-3.7,2.3-5.6,3.6
	c-0.3,0.2-0.5,0.2-0.8,0c-3.4-2.2-6.7-4.3-10.1-6.4c-0.9-0.5-1.3-1.3-1.3-2.4c0-2,0-4.1,0-6.1C90.8,22.6,90.7,22.4,91,22.3z"/>
<path class="st3" d="M21.9,45.5c0.9-0.8,1.7-1.6,2.7-2.2c1.1-0.7,2.3-1.1,3.7-1c0.4,0,0.5,0.1,0.5,0.5c0,1.3,0,2.6,0,3.9
	c0,0.4-0.1,0.5-0.5,0.4c-2-0.3-4-0.2-5.9,0.7c-0.3,0.2-0.4,0.4-0.4,0.8c0,3.6,0,7.2,0,10.9c0,0.5-0.1,0.6-0.6,0.6
	c-1.1,0-2.2,0-3.3,0c-0.3,0-0.5,0-0.5-0.5c0-5.5,0-10.9,0-16.3c0-0.6,0.3-0.9,0.9-0.9c1,0,2,0,3,0c0.4,0,0.5,0.1,0.5,0.5
	C21.9,43.8,21.9,44.5,21.9,45.5z"/>
<path class="st1" d="M35.2,51.2c0,2.7,0,5.5,0,8.2c0,0.4-0.1,0.6-0.6,0.6c-1.1,0-2.3,0-3.4,0c-0.3,0-0.5-0.1-0.5-0.4
	c0-5.4,0-10.8,0-16.2c0-0.7,0.3-1,1-1c1,0,1.9,0,2.9,0c0.5,0,0.5,0.1,0.5,0.6C35.2,45.7,35.2,48.5,35.2,51.2z"/>
<path class="st4" d="M102.2,38.3c-3.3,2.1-6.5,4.1-9.7,6.1c-0.4,0.3-0.9,0.5-1.3,0.8c-0.2,0.1-0.4,0.2-0.4-0.1c0-2.1,0-4.3,0-6.3
	c0-1.1,0.7-1.9,1.6-2.5c1-0.6,2-1.3,3-1.9c0.1-0.1,0.3-0.2,0.5,0C98,35.6,100.1,37,102.2,38.3z"/>
<path class="st4" d="M96.5,20.4c3.6,3.9,7.1,7.6,10.7,11.4c0,0-0.1,0.1-0.1,0.1c-3.4-2.2-6.8-4.4-10.2-6.5c-0.1-0.1-0.3-0.2-0.3-0.4
	C96.5,23.5,96.5,22,96.5,20.4z"/>
<path class="st3" d="M30.6,38.1c0-1.3,1.1-2.4,2.4-2.4s2.4,1.1,2.4,2.4c0,1.3-1.1,2.4-2.4,2.4C31.6,40.5,30.6,39.4,30.6,38.1z"/>
<path class="st1" d="M62.7,52c3.5,0,7,0,10.6,0c0.5,0,0.6-0.1,0.6-0.6c0-1.2,0-2.4-0.2-3.6c-0.5-2.8-1.9-4.9-4.8-5.7
	c-1-0.3-2.1-0.3-3.2-0.3c-3.8,0.1-6.7,2.3-7.7,6c-0.6,2.2-0.6,4.5,0,6.7c0.7,2.6,2.3,4.4,4.9,5.3c3.6,1.2,7.1,0.7,10.6-0.6
	c0.1,0,0.2-0.1,0.2-0.2c0-1.3,0-2.6,0-3.9c-0.1,0-0.1,0-0.2,0c-0.2,0.1-0.3,0.2-0.5,0.3c-1.6,1.1-3.4,1.8-5.4,1.8
	c-3.2,0-5-1.5-5.4-4.5C61.9,52,61.9,52,62.7,52z M62,48.7c0.1-1.9,1.1-3.4,2.6-3.8c2.4-0.7,4.3,0.4,4.7,2.9c0.2,1.4,0.2,1.3-1.2,1.3
	c-0.8,0-1.6,0-2.4,0c-1.1,0-2.1,0-3.2,0.1C62,49.2,62,49.2,62,48.7z"/>
<path class="st5" d="M104.8,23.7c-0.6,0-1.1,0.5-1.2,1.2c0,0.6,0.5,1.2,1.2,1.2c0.7,0,1.2-0.5,1.2-1.2
	C106,24.2,105.5,23.7,104.8,23.7z M105.5,25.5c-0.1,0-0.3-0.2-0.3-0.4s0-0.4,0-0.5s0-0.2-0.1-0.2c-0.1-0.1-0.3-0.1-0.7,0l0,0l0,0
	c0,0.3,0,0.6,0,0.9c0,0.1-0.1,0.4,0.1,0.4c0.3,0,0.1-0.3,0.2-0.4c0.3,0,0.2,0.6,0.7,0.4c-0.5,0.3-1,0.3-1.4-0.1
	c-0.3-0.4-0.2-0.9,0.2-1.3c0.4-0.3,0.8-0.2,1.1,0c0.3,0.2,0.4,0.6,0.3,1C105.8,25.3,105.7,25.5,105.5,25.5z"/>
</svg>
